<?xml version="1.0" standalone="no"?>
<!DOCTYPE svg PUBLIC "-//W3C//DTD SVG 20010904//EN"
 "http://www.w3.org/TR/2001/REC-SVG-20010904/DTD/svg10.dtd">
<svg version="1.0" xmlns="http://www.w3.org/2000/svg"
 width="512.000000pt" height="512.000000pt" viewBox="0 0 512.000000 512.000000"
 preserveAspectRatio="xMidYMid meet">
<metadata>
Created by potrace 1.11, written by Peter Selinger 2001-2013
</metadata>
<g transform="translate(0.000000,512.000000) scale(0.100000,-0.100000)"
fill="#000000" stroke="none">
<path d="M1359 5097 c-137 -47 -249 -168 -279 -302 -6 -26 -11 -108 -12 -181
l-2 -134 -343 -1 c-189 -1 -346 -2 -350 -3 -5 -1 -26 -5 -47 -10 -127 -25
-252 -138 -302 -271 -18 -48 -19 -118 -21 -1840 -3 -1999 -8 -1847 69 -2005
80 -162 252 -296 429 -335 54 -11 406 -13 2174 -12 2036 2 2112 3 2160 21 98
37 189 115 233 201 55 109 52 -26 49 2361 l-2 2210 -37 75 c-49 98 -113 163
-208 208 l-75 36 -1685 2 -1685 3 -66 -23z m3378 -198 c66 -13 135 -71 156
-132 12 -37 14 -338 14 -2195 0 -1371 -3 -2170 -9 -2199 -13 -61 -85 -135
-146 -150 -29 -8 -587 -11 -1837 -11 l-1794 0 40 58 c49 73 87 158 104 235 11
48 13 465 14 2135 1 1219 5 2089 10 2107 22 76 84 137 153 153 53 11 3235 11
3295 -1z m-3671 -2464 c0 -2021 4 -1909 -63 -2015 -97 -153 -258 -227 -434
-199 -119 19 -250 112 -302 216 -58 113 -55 12 -55 1897 0 1213 3 1748 11
1778 15 60 90 133 148 145 24 5 190 9 369 9 l325 -1 1 -1830z"/>
<path d="M1663 4255 c-96 -40 -74 -184 31 -199 17 -3 273 -4 569 -4 531 1 539
1 570 22 58 40 60 128 4 170 -28 21 -36 21 -586 22 -422 1 -566 -2 -588 -11z"/>
<path d="M3385 4261 c-52 -15 -75 -48 -75 -110 0 -33 6 -44 35 -69 l35 -29
558 0 c614 -1 606 -1 636 60 17 37 15 72 -5 105 -31 49 -35 50 -619 49 -300 0
-554 -3 -565 -6z"/>
<path d="M1658 3611 c-75 -41 -76 -146 0 -185 40 -21 1108 -22 1157 -1 35 14
65 58 65 95 0 37 -30 81 -65 95 -27 12 -135 14 -578 14 -503 -1 -548 -2 -579
-18z"/>
<path d="M3273 3619 c-17 -5 -41 -22 -52 -38 -21 -29 -21 -39 -21 -698 0 -641
1 -669 19 -699 11 -19 33 -36 53 -43 23 -7 241 -10 696 -8 l664 2 29 33 c22
24 29 42 30 75 0 23 0 327 0 675 1 563 -1 635 -15 657 -36 55 -19 53 -721 53
-358 0 -664 -5 -682 -9z m1200 -209 c4 0 7 -238 7 -530 l0 -530 -57 -1 c-57 0
-318 0 -779 1 l-231 0 -1 530 0 529 102 3 c77 2 921 1 959 -2z"/>
<path d="M1663 2975 c-33 -14 -63 -59 -63 -95 0 -36 30 -81 63 -95 49 -20
1119 -20 1159 1 30 16 58 61 58 94 0 37 -30 81 -65 96 -47 19 -1105 19 -1152
-1z"/>
<path d="M1658 2334 c-32 -17 -58 -56 -58 -89 0 -35 25 -82 53 -97 28 -16
1103 -22 1154 -6 82 25 98 138 26 185 -25 17 -66 18 -589 19 -445 1 -566 -2
-586 -12z"/>
<path d="M1646 1683 c-66 -44 -56 -148 17 -177 47 -20 1120 -19 1158 0 55 27
73 88 44 144 -29 56 -14 55 -622 56 l-563 1 -34 -24z"/>
<path d="M3383 1702 c-38 -6 -73 -58 -73 -107 0 -38 5 -47 35 -73 l35 -29 558
0 c615 -1 606 -2 636 61 25 54 4 115 -48 139 -26 12 -123 14 -576 14 -300 -1
-555 -3 -567 -5z"/>
<path d="M1662 1054 c-93 -39 -70 -183 31 -198 17 -3 276 -4 574 -3 533 2 542
2 570 23 55 41 55 127 0 168 -28 21 -36 21 -587 22 -433 1 -565 -2 -588 -12z"/>
<path d="M3373 1059 c-55 -20 -82 -108 -47 -157 34 -49 32 -49 619 -49 607 -1
599 -1 629 61 25 54 4 115 -48 139 -26 12 -126 15 -581 14 -303 0 -560 -3
-572 -8z"/>
</g>
</svg>
